<svg width="24" height="24" viewBox="0 0 24 24" fill="none" xmlns="http://www.w3.org/2000/svg">
<g clip-path="url(#clip0_9204_1906)">
<path d="M24 11.9856C24 5.3582 18.6274 -0.0143776 12 -0.0143776C5.37258 -0.0143776 0 5.3582 0 11.9856C0 17.9752 4.38823 22.9396 10.125 23.8398V15.4544H7.07813V11.9856H10.125V9.34187C10.125 6.33437 11.9165 4.67312 14.6576 4.67312C15.9705 4.67312 17.3438 4.9075 17.3438 4.9075V7.86062H15.8306C14.3399 7.86062 13.875 8.78563 13.875 9.73461V11.9856H17.2031L16.6711 15.4544H13.875V23.8398C19.6118 22.9396 24 17.9752 24 11.9856Z" fill="white"/>
</g>
<defs>
<clipPath id="clip0_9204_1906">
<rect width="24" height="24" fill="white" transform="matrix(1 0 0 -1 0 24)"/>
</clipPath>
</defs>
</svg>
