<svg width="24" height="24" viewBox="0 0 24 24" fill="none" xmlns="http://www.w3.org/2000/svg">
<g clip-path="url(#clip0_9204_1912)">
<path d="M7.03007 0.0839251C5.75327 0.144165 4.88135 0.347925 4.11911 0.647445C3.33023 0.954885 2.66159 1.36745 1.99631 2.03513C1.33103 2.70281 0.921349 3.37193 0.616069 4.16201C0.320629 4.92593 0.120469 5.79857 0.0640689 7.07609C0.00766895 8.35361 -0.00481106 8.76425 0.00142894 12.023C0.00766894 15.2817 0.0220689 15.6902 0.0839889 16.9703C0.144949 18.2469 0.347989 19.1186 0.647509 19.881C0.955429 20.6699 1.36751 21.3383 2.03543 22.0038C2.70335 22.6694 3.37199 23.0781 4.16399 23.3838C4.92719 23.6788 5.80007 23.8799 7.07735 23.9358C8.35463 23.9918 8.76575 24.0047 12.0235 23.9985C15.2813 23.9922 15.6914 23.9778 16.9713 23.9171C18.2513 23.8564 19.1184 23.6519 19.8811 23.3538C20.67 23.0452 21.3389 22.6338 22.0039 21.9657C22.6689 21.2975 23.0784 20.6279 23.3834 19.8374C23.6791 19.0742 23.88 18.2013 23.9354 16.925C23.9913 15.6441 24.0045 15.2351 23.9983 11.9769C23.9921 8.71865 23.9774 8.31017 23.9167 7.03049C23.856 5.75081 23.6527 4.88177 23.3534 4.11881C23.045 3.32993 22.6334 2.66201 21.9657 1.99601C21.2981 1.33001 20.628 0.920805 19.8377 0.616485C19.074 0.321045 18.2016 0.119685 16.9243 0.0644851C15.647 0.00928514 15.2359 -0.00487487 11.9769 0.00136513C8.71799 0.00760513 8.30999 0.0215251 7.03007 0.0839251ZM7.17023 21.777C6.00023 21.7262 5.36495 21.5318 4.94159 21.369C4.38095 21.153 3.98159 20.8919 3.55967 20.4741C3.13775 20.0562 2.87855 19.6554 2.65967 19.096C2.49527 18.6726 2.29727 18.0381 2.24255 16.8681C2.18303 15.6035 2.17055 15.2238 2.16359 12.0201C2.15663 8.81633 2.16887 8.43713 2.22431 7.17209C2.27423 6.00305 2.46983 5.36705 2.63231 4.94393C2.84831 4.38257 3.10847 3.98393 3.52727 3.56225C3.94607 3.14057 4.34567 2.88089 4.90559 2.66201C5.32847 2.49689 5.96303 2.30057 7.13255 2.24489C8.39807 2.18489 8.77727 2.17289 11.9805 2.16593C15.1838 2.15897 15.564 2.17097 16.83 2.22664C17.999 2.27753 18.6353 2.4712 19.0579 2.63464C19.6188 2.85065 20.0179 3.11009 20.4396 3.52961C20.8613 3.94913 21.1212 4.34729 21.3401 4.90841C21.5054 5.33009 21.7017 5.96441 21.7569 7.13465C21.8172 8.40017 21.8309 8.7796 21.8366 11.9826C21.8424 15.1857 21.8311 15.5661 21.7757 16.8306C21.7245 18.0006 21.5306 18.6362 21.3677 19.06C21.1517 19.6204 20.8913 20.02 20.4722 20.4414C20.0532 20.8629 19.6541 21.1226 19.0939 21.3414C18.6715 21.5063 18.0362 21.7031 16.8677 21.7588C15.6021 21.8183 15.2229 21.8308 12.0185 21.8378C8.81399 21.8447 8.43599 21.8318 7.17047 21.777M16.9529 5.58641C16.9533 5.87123 17.0383 6.14952 17.1969 6.38607C17.3556 6.62262 17.5808 6.80681 17.8441 6.91535C18.1075 7.02389 18.3971 7.05189 18.6763 6.99583C18.9556 6.93976 19.2119 6.80214 19.413 6.60037C19.614 6.3986 19.7507 6.14174 19.8057 5.86228C19.8608 5.58283 19.8317 5.29333 19.7222 5.03039C19.6127 4.76746 19.4277 4.5429 19.1905 4.38512C18.9534 4.22735 18.6748 4.14344 18.39 4.14401C18.0082 4.14477 17.6423 4.29715 17.3728 4.56764C17.1033 4.83813 16.9522 5.20458 16.9529 5.58641ZM5.83847 12.0119C5.84519 15.4151 8.60903 18.1677 12.0115 18.1612C15.414 18.1547 18.1685 15.3911 18.162 11.9879C18.1555 8.58473 15.3909 5.83145 11.988 5.83817C8.58503 5.84489 5.83199 8.60921 5.83847 12.0119ZM7.99991 12.0076C7.99834 11.2165 8.23141 10.4426 8.66965 9.78395C9.10788 9.12527 9.73159 8.61134 10.4619 8.30714C11.1922 8.00294 11.9963 7.92213 12.7726 8.07494C13.5488 8.22774 14.2623 8.6073 14.8229 9.16561C15.3834 9.72393 15.7658 10.4359 15.9216 11.2115C16.0775 11.9872 15.9999 12.7916 15.6986 13.5231C15.3973 14.2547 14.8858 14.8804 14.2289 15.3212C13.572 15.7621 12.799 15.9982 12.0079 15.9998C11.4826 16.0009 10.9622 15.8985 10.4765 15.6984C9.99073 15.4984 9.54915 15.2046 9.17696 14.8339C8.80477 14.4632 8.50926 14.0228 8.3073 13.5378C8.10534 13.0529 8.00088 12.5329 7.99991 12.0076Z" fill="white"/>
</g>
<defs>
<clipPath id="clip0_9204_1912">
<rect width="24" height="24" fill="white"/>
</clipPath>
</defs>
</svg>
