<svg width="16" height="16" viewBox="0 0 16 16" fill="none" xmlns="http://www.w3.org/2000/svg">
<path d="M6.19281 11.4112L11.4932 8.00194L6.19281 4.59267V11.4112ZM8.08581 15.5781C7.03835 15.5781 6.05399 15.3792 5.13272 14.9815C4.21146 14.5837 3.41009 14.0439 2.72861 13.3621C2.04713 12.6802 1.50762 11.8784 1.11009 10.9566C0.712559 10.0349 0.513794 9.04998 0.513794 8.00194C0.513794 6.95391 0.712559 5.969 1.11009 5.04724C1.50762 4.12547 2.04713 3.32366 2.72861 2.64181C3.41009 1.95995 4.21146 1.42015 5.13272 1.0224C6.05399 0.624655 7.03835 0.425781 8.08581 0.425781C9.13327 0.425781 10.1176 0.624655 11.0389 1.0224C11.9602 1.42015 12.7615 1.95995 13.443 2.64181C14.1245 3.32366 14.664 4.12547 15.0615 5.04724C15.4591 5.969 15.6578 6.95391 15.6578 8.00194C15.6578 9.04998 15.4591 10.0349 15.0615 10.9566C14.664 11.8784 14.1245 12.6802 13.443 13.3621C12.7615 14.0439 11.9602 14.5837 11.0389 14.9815C10.1176 15.3792 9.13327 15.5781 8.08581 15.5781ZM8.08581 14.0629C9.77689 14.0629 11.2093 13.4757 12.3829 12.3014C13.5566 11.1271 14.1434 9.69395 14.1434 8.00194C14.1434 6.30993 13.5566 4.87678 12.3829 3.70247C11.2093 2.52817 9.77689 1.94101 8.08581 1.94101C6.39473 1.94101 4.96235 2.52817 3.78869 3.70247C2.61503 4.87678 2.0282 6.30993 2.0282 8.00194C2.0282 9.69395 2.61503 11.1271 3.78869 12.3014C4.96235 13.4757 6.39473 14.0629 8.08581 14.0629Z" fill="white"/>
</svg>
