<svg width="70" height="24" viewBox="0 0 70 24" fill="none" xmlns="http://www.w3.org/2000/svg">
<path d="M13.4652 4.41281C13.4652 3.35652 14.3209 2.5 15.3761 2.5H3.91082C2.85559 2.5 1.99994 3.35652 1.99994 4.41281C1.99994 5.46911 2.85559 6.32563 3.91082 6.32563H15.3761C14.3209 6.32563 13.4652 5.46911 13.4652 4.41281Z" fill="#66CCCC"/>
<path d="M14.1648 18.365L8.43215 8.42578C8.95976 9.34074 8.64659 10.5107 7.73255 11.0389C6.81851 11.567 5.64969 11.2536 5.12207 10.3386L10.8547 20.2778C11.3823 21.1928 12.5512 21.5062 13.4652 20.9781C14.3792 20.4499 14.6924 19.2799 14.1648 18.365Z" fill="#6666CC"/>
<path d="M22.0443 2.75654C21.1303 2.22839 19.9614 2.54188 19.4338 3.45684L13.7012 13.396C14.2288 12.4811 15.3976 12.1676 16.3117 12.6957C17.2257 13.2239 17.5389 14.3939 17.0112 15.3089L22.7439 5.36965C23.2715 4.45469 22.9583 3.28575 22.0443 2.75654Z" fill="#FF6666"/>
<path d="M15.3763 6.32563C16.4326 6.32563 17.2888 5.46923 17.2888 4.41281C17.2888 3.3564 16.4326 2.5 15.3763 2.5C14.3201 2.5 13.4638 3.3564 13.4638 4.41281C13.4638 5.46923 14.3201 6.32563 15.3763 6.32563Z" fill="#FFCC00"/>
<path d="M6.78066 11.2944C7.83691 11.2944 8.69316 10.438 8.69316 9.38156C8.69316 8.32515 7.83691 7.46875 6.78066 7.46875C5.72442 7.46875 4.86816 8.32515 4.86816 9.38156C4.86816 10.438 5.72442 11.2944 6.78066 11.2944Z" fill="#FFCC00"/>
<path d="M15.3763 16.267C16.4326 16.267 17.2888 15.4106 17.2888 14.3542C17.2888 13.2978 16.4326 12.4414 15.3763 12.4414C14.3201 12.4414 13.4638 13.2978 13.4638 14.3542C13.4638 15.4106 14.3201 16.267 15.3763 16.267Z" fill="#FFCC00"/>
<path fill-rule="evenodd" clip-rule="evenodd" d="M42.0455 4.43718C42.0455 5.47901 41.2004 6.32358 40.158 6.32358C39.1156 6.32358 38.2705 5.47901 38.2705 4.43718C38.2705 3.39535 39.1156 2.55078 40.158 2.55078C41.2004 2.55078 42.0455 3.39535 42.0455 4.43718ZM46.9535 17.7921C47.8455 19.0057 49.1709 19.7382 50.7037 19.7382C53.8361 19.7382 56.1917 17.2891 56.1917 13.7856C56.1917 10.2832 53.8361 7.834 50.7037 7.834C49.172 7.834 47.8455 8.56655 46.9535 9.78013V2.55103H44.667V19.5087H46.9535V17.7921ZM50.4294 17.6318C48.4402 17.6318 46.9535 16.0985 46.9535 13.7866C46.9535 11.4747 48.4402 9.94048 50.4294 9.94048C52.4186 9.94048 53.9052 11.4747 53.9052 13.7866C53.9052 16.0985 52.4186 17.6318 50.4294 17.6318ZM41.2963 8.07617H39.0098V19.5214H41.2963V8.07617ZM33.1899 19.5219H29.9884L26.1 8.07674H28.4787L31.5891 17.6911L34.6986 8.07674H37.0772L33.1899 19.5219ZM69.0548 14.576H60.0957C60.3699 16.5672 61.6496 17.7346 63.5697 17.7346C64.9635 17.7346 65.878 17.1163 66.3353 16.0861H68.8026C68.0942 18.4441 66.1061 19.7489 63.4776 19.7489C60.2328 19.7489 57.8555 17.2997 57.8555 13.7973C57.8555 10.2949 60.2328 7.8457 63.4776 7.8457C66.7235 7.8457 69.0998 10.2949 69.0998 13.7973C69.0998 14.0729 69.0778 14.3244 69.0548 14.576ZM60.1177 12.9285H66.8375C66.5634 11.0054 65.3056 9.86101 63.4776 9.86101C61.6266 9.86101 60.3919 11.0054 60.1177 12.9285Z" fill="white"/>
</svg>
